<svg width="17" height="16" viewBox="0 0 17 16" fill="none" xmlns="http://www.w3.org/2000/svg">
<path d="M3.00004 6.99031C2.66599 6.99031 2.39518 7.26112 2.39518 7.59517C2.39518 7.92923 2.66598 8.20003 3.00004 8.20004L3.00004 6.99031ZM14.1905 7.59526L14.6182 8.02296C14.8544 7.78674 14.8544 7.40377 14.6182 7.16755L14.1905 7.59526ZM9.90413 2.45351C9.66791 2.2173 9.28494 2.2173 9.04872 2.45351C8.81251 2.68972 8.81251 3.0727 9.04872 3.30891L9.90413 2.45351ZM9.04872 11.8816C8.81251 12.1178 8.81251 12.5008 9.04872 12.737C9.28494 12.9732 9.66791 12.9732 9.90413 12.737L9.04872 11.8816ZM3.00004 8.20004L14.1905 8.20012L14.1905 6.99039L3.00004 6.99031L3.00004 8.20004ZM9.04872 3.30891L13.7628 8.02296L14.6182 7.16755L9.90413 2.45351L9.04872 3.30891ZM13.7628 7.16755L9.04872 11.8816L9.90413 12.737L14.6182 8.02296L13.7628 7.16755Z" fill="white"/>
</svg>
